# xmcd
#
# Track frame offsets: 
#        150
#        16894
#        37459
#        61343
#        75073
#        93780
#        117302
#        150571
#        170690
#        190638
#        208031
#
# Disc length: 3554 seconds
#
# Revision: 0
# Processed by: cddbd v1.5.2PL0 Copyright (c) Steve Scherf et al.
# Submitted via: ExactAudioCopyFreeDBPlugin 1.0
#
DISCID=820de00b
DTITLE=Joey from Barcelona - Blues Harp Tunes
DYEAR=2017
DGENRE=Folk/Rock
TTITLE0=She belongs to me (Bob Dylan)
TTITLE1=Dont think twice, it´s allright (Bob Dylan)
TTITLE2=Mr. Bojangles (Jerry Jeff Walker)
TTITLE3=It takes a lot to launch, it takes a train to cry (Bob Dylan)
TTITLE4=Knockin`on heavens door ( Bob Dylan)
TTITLE5=Into the mystic (Van Morrison)
TTITLE6=Take this waltz (Leonhard Cohen)
TTITLE7=I shall be released (Bob Dylan)
TTITLE8=You´re gonna make me lonesome when vou go (Bob Dylan)
TTITLE9=One (U2)
TTITLE10=Sad eyes lady of the lowlands (Bob Dylan)
EXTD=
EXTT0=
EXTT1=
EXTT2=
EXTT3=
EXTT4=
EXTT5=
EXTT6=
EXTT7=
EXTT8=
EXTT9=
EXTT10=
PLAYORDER=
